HIERARCHY
ROOT root
{
	OFFSET	0	13.1	24.9
	CHANNELS 6  Xposition Yposition Zposition Xrotation Yrotation Zrotation
	JOINT spine_1
	{
		OFFSET	0	9.99999	0
		CHANNELS 3  Xrotation Yrotation Zrotation
		JOINT spine_2
		{
			OFFSET	0	112	-10
			CHANNELS 3  Xrotation Yrotation Zrotation
			JOINT spine_3
			{
				OFFSET	0	206.5	19.3
				CHANNELS 3  Xrotation Yrotation Zrotation
				JOINT spine_4
				{
					OFFSET	0	110.4	14.6
					CHANNELS 3  Xrotation Yrotation Zrotation
					JOINT neck_1
					{
						OFFSET	0	71.8	-50.3
						CHANNELS 3  Xrotation Yrotation Zrotation
						JOINT neck_2
						{
							OFFSET	0	86.2	-25.8
							CHANNELS 3  Xrotation Yrotation Zrotation
							JOINT head_ee
							{
								OFFSET	0	179.8	-8.7
								CHANNELS 3  Xrotation Yrotation Zrotation
								End Site
								{
									OFFSET	1	0	0
								}
							}
						}
					}
					JOINT left_clavicle
					{
						OFFSET	-43.2	22.4	-70.8
						CHANNELS 3  Xrotation Yrotation Zrotation
						JOINT left_shoulder
						{
							OFFSET	-93.9	-5.79999	48.7
							CHANNELS 3  Xrotation Yrotation Zrotation
							JOINT left_elbow
							{
								OFFSET	-291.4	-30.8	15.2
								CHANNELS 3  Xrotation Yrotation Zrotation
								JOINT left_lowarm_twist
								{
									OFFSET	-110.7	-3.89999	13.6
									CHANNELS 3  Xrotation Yrotation Zrotation
									JOINT left_hand
									{
										OFFSET	-110.7	-3.89999	13.6
										CHANNELS 3  Xrotation Yrotation Zrotation
										JOINT left_ee
										{
											OFFSET	-80.8	-5.10001	12.1
											CHANNELS 3  Xrotation Yrotation Zrotation
											End Site
											{
												OFFSET	1	0	0
											}
										}
									}
								}
							}
						}
					}
					JOINT right_clavicle
					{
						OFFSET	43.2	22.4	-70.8
						CHANNELS 3  Xrotation Yrotation Zrotation
						JOINT right_shoulder
						{
							OFFSET	93.9	-5.79999	48.7
							CHANNELS 3  Xrotation Yrotation Zrotation
							JOINT right_elbow
							{
								OFFSET	291.4	-30.8	15.2
								CHANNELS 3  Xrotation Yrotation Zrotation
								JOINT right_lowarm_twist
								{
									OFFSET	110.7	-3.89999	13.6
									CHANNELS 3  Xrotation Yrotation Zrotation
									JOINT right_hand
									{
										OFFSET	110.7	-3.89999	13.6
										CHANNELS 3  Xrotation Yrotation Zrotation
										JOINT right_ee
										{
											OFFSET	80.8	-5.10001	12.1
											CHANNELS 3  Xrotation Yrotation Zrotation
											End Site
											{
												OFFSET	1	0	0
											}
										}
									}
								}
							}
						}
					}
				}
			}
		}
	}
	JOINT left_hip
	{
		OFFSET	-82.8	-127.5	0.300001
		CHANNELS 3  Xrotation Yrotation Zrotation
		JOINT left_knee
		{
			OFFSET	-28.2	-396.7	2.2
			CHANNELS 3  Xrotation Yrotation Zrotation
			JOINT left_ankle
			{
				OFFSET	-11.7	-411.3	35.4
				CHANNELS 3  Xrotation Yrotation Zrotation
				JOINT left_toes
				{
					OFFSET	0	-60	-88.6
					CHANNELS 3  Xrotation Yrotation Zrotation
					JOINT left_foot_ee
					{
						OFFSET	-22.5	-16.5	-42.2
						CHANNELS 3  Xrotation Yrotation Zrotation
						End Site
						{
							OFFSET	1	0	0
						}
					}
				}
			}
		}
	}
	JOINT right_hip
	{
		OFFSET	82.8	-127.5	0.300001
		CHANNELS 3  Xrotation Yrotation Zrotation
		JOINT right_knee
		{
			OFFSET	28.2	-396.7	2.2
			CHANNELS 3  Xrotation Yrotation Zrotation
			JOINT right_ankle
			{
				OFFSET	11.7	-411.3	35.4
				CHANNELS 3  Xrotation Yrotation Zrotation
				JOINT right_toes
				{
					OFFSET	0	-60	-88.6
					CHANNELS 3  Xrotation Yrotation Zrotation
					JOINT right_foot_ee
					{
						OFFSET	22.5	-16.5	-42.2
						CHANNELS 3  Xrotation Yrotation Zrotation
						End Site
						{
							OFFSET	1	0	0
						}
					}
				}
			}
		}
	}
}
MOTION
Frames: 8
Frame Time: 0.02
2541.25 711.344 -1419.31 -7.26676 59.2757 -0.554839 2.25087 0.467908 3.57332 2.25794 0.239731 3.59581 2.27226 -0.379925 3.58373 2.25439 0.190448 3.59875 -4.17024 15.8345 -5.22398 -3.65114 32.9495 -2.91355 -0.0 0.0 -0.0 -0.92739 23.3322 1.42818 14.1612 -29.9511 51.7019 4.08836 -63.7028 2.54063 -37.5651 -2.69601 3.88036 -1.59799 11.6851 -5.31781 -0.0 0.0 -0.0 12.3884 16.9985 -25.0069 -29.5403 2.8015 -64.2822 0.23558 6.65643 -0.0136999 -6.76832 0.287064 -0.815728 -0.942261 -28.8358 -6.15408 0.0 0.0 0.0 -14.4389 2.80401 20.2533 -0.799898 0.0321094 0.118554 39.7323 10.6132 -4.85769 -30.5599 0.0 0.0 -0.0 0.0 -0.0 36.4864 17.2785 -7.36313 -1.29897 -0.0513016 -0.19274 -17.4831 13.2598 -2.83125 -26.288 0.0 0.0 0.0 0.0 0.0 
2520.21 697.755 -1423.73 -6.5759 59.8941 -1.54587 2.14864 0.224735 3.55015 2.15565 -0.00147959 3.55724 2.15484 -0.618584 3.50312 2.13772 -0.0579336 3.55677 -3.86036 15.3233 -6.5022 -3.23043 32.9442 -4.44221 -0.0 0.0 -0.0 -0.435516 21.273 1.85033 12.3998 -28.3762 51.5034 3.5157 -60.121 2.03517 -37.4546 -2.68462 3.87192 -1.45852 12.9025 -3.8696 -0.0 0.0 -0.0 12.5087 17.4647 -25.2614 -28.7285 3.40616 -64.3203 0.267594 7.55117 -0.017659 -6.50971 0.274333 -0.785205 -0.867355 -28.9008 -6.58527 0.0 0.0 0.0 -16.4916 2.93462 21.4443 -1.5632 0.0612011 0.232082 41.68 10.2994 -5.02341 -30.1279 0.0 0.0 -0.0 0.0 -0.0 37.2571 17.5685 -7.29129 -5.47576 -0.186409 -0.819374 -19.9785 11.8404 -3.20749 -27.0829 0.0 0.0 0.0 0.0 0.0 
2505.57 696.8 -1428.73 -6.77019 59.8598 -1.18772 2.02073 0.419602 3.48199 2.02745 0.197323 3.5016 2.03921 -0.419796 3.48197 2.02232 0.135034 3.50455 -4.14018 14.8405 -6.6938 -3.55891 32.2238 -4.62315 -0.0 0.0 -0.0 -0.535939 21.6388 1.7527 10.5534 -28.741 52.1279 3.22071 -57.9083 1.78222 -38.4165 -2.78435 3.94462 -1.34489 12.9535 -3.13075 -0.0 0.0 -0.0 12.7462 17.4517 -25.8119 -26.9428 4.06042 -64.876 0.284981 8.03558 -0.0200168 -5.74337 0.237419 -0.694431 -0.713471 -28.9425 -7.43433 0.0 0.0 0.0 -16.2623 2.4361 21.3647 -3.13448 0.116307 0.466924 40.8948 10.5986 -4.95907 -31.6307 0.0 0.0 -0.0 0.0 -0.0 37.0734 18.0642 -7.3398 -7.55827 -0.23661 -1.135 -18.8743 11.5242 -3.02294 -27.1469 0.0 0.0 0.0 0.0 0.0 
2487.27 693.309 -1433.35 -6.3843 60.0957 -1.89572 2.10742 0.46725 3.57104 2.11448 0.239218 3.5935 2.12904 -0.388997 3.5804 2.1112 0.180965 3.5969 -3.68448 14.4424 -6.75982 -3.06065 31.5178 -4.89494 -0.0 0.0 -0.0 -0.391647 21.4536 1.93513 8.07686 -27.8159 52.581 2.92329 -55.3619 1.53377 -38.447 -2.78754 3.9469 -1.20728 13.1712 -2.16739 -0.0 0.0 -0.0 12.1901 17.4977 -24.5254 -23.7952 5.10418 -66.5684 0.337447 9.49009 -0.0280104 -4.47269 0.178902 -0.542869 -0.304892 -28.8258 -9.61196 0.0 0.0 0.0 -16.2222 2.37207 20.6276 -5.96412 0.199211 0.893227 41.6436 12.4351 -5.04189 -31.687 0.0 0.0 -0.0 0.0 -0.0 36.6678 18.6325 -7.04154 -10.5274 -0.288274 -1.58763 -17.9215 10.7758 -2.85561 -27.696 0.0 0.0 0.0 0.0 0.0 
2467.53 694.671 -1443.23 -6.94868 60.3603 -1.7496 1.9933 0.567651 3.65642 2.00068 0.333995 3.68508 2.022 -0.318314 3.68647 2.00314 0.267481 3.6905 -2.59912 15.2261 -6.09172 -1.84172 32.354 -4.42327 -0.0 0.0 -0.0 -0.930632 21.4467 1.16548 4.75365 -27.0111 53.0661 2.72662 -53.4755 1.37379 -38.7042 -2.81443 3.96605 -0.89847 12.1422 -0.67787 -0.0 0.0 -0.0 12.0475 17.4817 -24.1986 -21.8911 5.82807 -68.127 0.389327 10.9163 -0.037201 -3.58792 0.140153 -0.436599 -0.188565 -28.054 -9.96983 0.0 0.0 0.0 -15.7379 3.44529 20.4451 -8.2596 0.250929 1.24167 42.0379 13.5411 -5.08945 -31.7638 0.0 0.0 -0.0 0.0 -0.0 37.1669 18.8269 -7.06864 -13.1687 -0.314469 -1.99202 -16.2803 10.0852 -2.58073 -26.1506 0.0 0.0 0.0 0.0 0.0 
2443.48 694.431 -1453.64 -7.6475 60.1677 -1.34397 1.94719 0.722856 3.83309 1.95523 0.477669 3.87124 1.98756 -0.21164 3.89482 1.96663 0.405656 3.87943 -1.41634 15.4475 -6.7854 -0.413675 33.1816 -5.54061 -0.0 0.0 -0.0 -0.581232 21.6936 1.69532 2.80847 -24.5448 53.4794 2.36465 -49.5055 1.09038 -39.2604 -2.87286 4.00704 -0.758117 11.5897 -0.0291126 -0.0 0.0 -0.0 12.3553 17.649 -24.8977 -20.3777 6.28733 -69.0391 0.321795 9.05738 -0.025488 -2.61881 0.0996013 -0.319537 0.0577177 -26.645 -10.8424 0.0 0.0 0.0 -15.5408 3.14474 20.0942 -10.7582 0.291305 1.62291 41.5914 15.9102 -5.0879 -32.9281 0.0 0.0 -0.0 0.0 -0.0 36.3797 19.1537 -6.96207 -12.3975 -0.308748 -1.87383 -14.6296 12.9045 -2.35846 -28.9855 0.0 0.0 0.0 0.0 0.0 
2415.45 698.613 -1471.36 -5.87078 59.6939 -2.572 1.92651 0.733538 3.95951 1.9351 0.480304 3.99807 1.96871 -0.232739 4.02005 1.94639 0.404553 4.00643 0.702642 15.9826 -7.15613 2.11104 34.2054 -6.62802 -0.0 0.0 -0.0 -1.53316 21.5297 0.318255 -1.79108 -22.5541 54.3039 2.11996 -46.3959 0.90861 -38.0736 -2.74866 3.9189 -0.846268 9.97206 -1.29203 -0.0 0.0 -0.0 12.2701 18.6543 -24.6438 -18.1383 6.50095 -72.2165 0.276767 7.80689 -0.0188848 -1.86319 0.069363 -0.227804 -0.0442913 -27.353 -10.52 0.0 0.0 0.0 -15.5123 2.94366 19.2011 -14.5536 0.320747 2.2044 40.0313 19.4147 -5.01803 -33.9729 0.0 0.0 -0.0 0.0 -0.0 34.6705 22.164 -8.39903 -18.553 -0.310052 -2.81781 -5.16428 11.2426 -0.812207 -25.9765 0.0 0.0 0.0 0.0 0.0 
2397.0 694.731 -1478.09 -5.00898 59.9749 -3.52329 1.94486 0.693648 4.09261 1.95407 0.432046 4.12837 1.98518 -0.302205 4.13988 1.96145 0.354831 4.13571 -1.15017 15.825 -6.64814 -0.087058 33.7272 -5.44609 -0.0 0.0 -0.0 -1.67302 21.0268 0.0389579 -4.52494 -21.1317 54.8084 1.95965 -44.1449 0.794697 -36.8678 -2.62438 3.82675 -0.669798 8.90486 -0.620596 -0.0 0.0 -0.0 12.7147 19.8459 -25.5934 -14.6037 8.34049 -72.3678 0.252821 7.13873 -0.0157704 -1.93131 0.0720394 -0.236091 0.244971 -26.7717 -11.9453 0.0 0.0 0.0 -15.9539 2.7558 19.0711 -17.041 0.31913 2.586 40.8585 19.3403 -5.09174 -34.6274 0.0 0.0 -0.0 0.0 -0.0 33.045 22.2281 -7.76752 -20.8312 -0.284832 -3.16644 1.56463 10.8284 0.24149 -25.9872 0.0 0.0 0.0 0.0 0.0 
